HIERARCHY
ROOT hip
{
  OFFSET 0 90.174 2.4664
  CHANNELS 6 Xposition Yposition Zposition Zrotation Xrotation Yrotation
  JOINT abdomen
  {
    OFFSET 0 -1.186 -1.5018
    CHANNELS 6 Xposition Yposition Zposition Zrotation Xrotation Yrotation
    JOINT abdomen2
    {
      OFFSET 0 9.964 0.2134
      CHANNELS 6 Xposition Yposition Zposition Zrotation Xrotation Yrotation
      JOINT chest
      {
        OFFSET 0 13.134 -3.2573
        CHANNELS 6 Xposition Yposition Zposition Zrotation Xrotation Yrotation
        JOINT neck
        {
          OFFSET 0 20.686 -1.6905
          CHANNELS 6 Xposition Yposition Zposition Zrotation Xrotation Yrotation
          JOINT head
          {
            OFFSET 0 7.238 -0.1237
            CHANNELS 6 Xposition Yposition Zposition Zrotation Xrotation Yrotation
            End Site
            {
              OFFSET 0 0 0
            }
          }
        }
        JOINT lCollar
        {
          OFFSET 1.7069 20.075 5.0056
          CHANNELS 6 Xposition Yposition Zposition Zrotation Xrotation Yrotation
          JOINT lShldr
          {
            OFFSET 13.6458 -0.047 -4.849
            CHANNELS 6 Xposition Yposition Zposition Zrotation Xrotation Yrotation
            JOINT lForeArm
            {
              OFFSET 28.3255 -0.9759 2.2888
              CHANNELS 6 Xposition Yposition Zposition Zrotation Xrotation Yrotation
              JOINT lHand
              {
                OFFSET 22.1583 -0.53 10.8316
                CHANNELS 6 Xposition Yposition Zposition Zrotation Xrotation Yrotation
                JOINT lThumb1
                {
                  OFFSET 0.786 0.112 2.5817
                  CHANNELS 6 Xposition Yposition Zposition Zrotation Xrotation Yrotation
                  JOINT lThumb2
                  {
                    OFFSET 0.3601 -0.878 4.2331
                    CHANNELS 6 Xposition Yposition Zposition Zrotation Xrotation Yrotation
                    JOINT lThumb2_End
                    {
                      OFFSET 1.8127 -1.216 2.2227
                      CHANNELS 6 Xposition Yposition Zposition Zrotation Xrotation Yrotation
                      End Site
                      {
                        OFFSET 0.0181 -0.0122 0.0222
                      }
                    }
                  }
                }
                JOINT lCarpal1
                {
                  OFFSET 0.9571 1.114 1.7695
                  CHANNELS 6 Xposition Yposition Zposition Zrotation Xrotation Yrotation
                  JOINT lIndex1
                  {
                    OFFSET 4.1246 0.487 4.1451
                    CHANNELS 6 Xposition Yposition Zposition Zrotation Xrotation Yrotation
                    JOINT lIndex2
                    {
                      OFFSET 3.4052 -1.454 2.7682
                      CHANNELS 6 Xposition Yposition Zposition Zrotation Xrotation Yrotation
                      JOINT lIndex2_End
                      {
                        OFFSET 1.4531 -1.795 1.2713
                        CHANNELS 6 Xposition Yposition Zposition Zrotation Xrotation Yrotation
                        End Site
                        {
                          OFFSET 0.0145 -0.0179 0.0127
                        }
                      }
                    }
                  }
                  JOINT lMid1
                  {
                    OFFSET 5.6954 0.21 2.1184
                    CHANNELS 6 Xposition Yposition Zposition Zrotation Xrotation Yrotation
                    JOINT lMid2
                    {
                      OFFSET 3.9766 -1.54 2.3863
                      CHANNELS 6 Xposition Yposition Zposition Zrotation Xrotation Yrotation
                      JOINT lMid2_End
                      {
                        OFFSET 1.4042 -1.926 1.125
                        CHANNELS 6 Xposition Yposition Zposition Zrotation Xrotation Yrotation
                        End Site
                        {
                          OFFSET 0.014 -0.0193 0.0113
                        }
                      }
                    }
                  }
                }
                JOINT lCarpal2
                {
                  OFFSET 2.0956 0.66 -0.3894
                  CHANNELS 6 Xposition Yposition Zposition Zrotation Xrotation Yrotation
                  JOINT lRing1
                  {
                    OFFSET 5.0395 -0.09 2.4971
                    CHANNELS 6 Xposition Yposition Zposition Zrotation Xrotation Yrotation
                    JOINT lRing2
                    {
                      OFFSET 3.7921 -1.552 1.4806
                      CHANNELS 6 Xposition Yposition Zposition Zrotation Xrotation Yrotation
                      JOINT lRing2_End
                      {
                        OFFSET 1.4655 -1.808 0.9609
                        CHANNELS 6 Xposition Yposition Zposition Zrotation Xrotation Yrotation
                        End Site
                        {
                          OFFSET 0.0147 -0.0181 0.0096
                        }
                      }
                    }
                  }
                  JOINT lPinky1
                  {
                    OFFSET 4.9141 -1.269 0.3591
                    CHANNELS 6 Xposition Yposition Zposition Zrotation Xrotation Yrotation
                    JOINT lPinky2
                    {
                      OFFSET 3.1477 -1.685 0.8462
                      CHANNELS 6 Xposition Yposition Zposition Zrotation Xrotation Yrotation
                      JOINT lPinky2_End
                      {
                        OFFSET 0.8055 -1.585 0.7955
                        CHANNELS 6 Xposition Yposition Zposition Zrotation Xrotation Yrotation
                        End Site
                        {
                          OFFSET 0.0081 -0.0158 0.008
                        }
                      }
                    }
                  }
                }
              }
            }
          }
        }
        JOINT rCollar
        {
          OFFSET -1.7069 20.075 5.0056
          CHANNELS 6 Xposition Yposition Zposition Zrotation Xrotation Yrotation
          JOINT rShldr
          {
            OFFSET -13.6458 -0.047 -4.849
            CHANNELS 6 Xposition Yposition Zposition Zrotation Xrotation Yrotation
            JOINT rForeArm
            {
              OFFSET -28.3255 -0.9759 2.2888
              CHANNELS 6 Xposition Yposition Zposition Zrotation Xrotation Yrotation
              JOINT rHand
              {
                OFFSET -22.1583 -0.53 10.8316
                CHANNELS 6 Xposition Yposition Zposition Zrotation Xrotation Yrotation
                JOINT rThumb1
                {
                  OFFSET -0.786 0.112 2.5817
                  CHANNELS 6 Xposition Yposition Zposition Zrotation Xrotation Yrotation
                  JOINT rThumb2
                  {
                    OFFSET -0.3601 -0.878 4.2331
                    CHANNELS 6 Xposition Yposition Zposition Zrotation Xrotation Yrotation
                    JOINT rThumb2_End
                    {
                      OFFSET -1.8127 -1.216 2.2227
                      CHANNELS 6 Xposition Yposition Zposition Zrotation Xrotation Yrotation
                      End Site
                      {
                        OFFSET -0.0181 -0.0122 0.0222
                      }
                    }
                  }
                }
                JOINT rCarpal1
                {
                  OFFSET -0.9571 1.114 1.7695
                  CHANNELS 6 Xposition Yposition Zposition Zrotation Xrotation Yrotation
                  JOINT rIndex1
                  {
                    OFFSET -4.1246 0.487 4.1451
                    CHANNELS 6 Xposition Yposition Zposition Zrotation Xrotation Yrotation
                    JOINT rIndex2
                    {
                      OFFSET -3.4052 -1.454 2.7682
                      CHANNELS 6 Xposition Yposition Zposition Zrotation Xrotation Yrotation
                      JOINT rIndex2_End
                      {
                        OFFSET -1.4531 -1.795 1.2713
                        CHANNELS 6 Xposition Yposition Zposition Zrotation Xrotation Yrotation
                        End Site
                        {
                          OFFSET -0.0145 -0.018 0.0127
                        }
                      }
                    }
                  }
                  JOINT rMid1
                  {
                    OFFSET -5.6954 0.21 2.1184
                    CHANNELS 6 Xposition Yposition Zposition Zrotation Xrotation Yrotation
                    JOINT rMid2
                    {
                      OFFSET -3.9766 -1.54 2.3863
                      CHANNELS 6 Xposition Yposition Zposition Zrotation Xrotation Yrotation
                      JOINT rMid2_End
                      {
                        OFFSET -1.4042 -1.926 1.125
                        CHANNELS 6 Xposition Yposition Zposition Zrotation Xrotation Yrotation
                        End Site
                        {
                          OFFSET -0.014 -0.0193 0.0113
                        }
                      }
                    }
                  }
                }
                JOINT rCarpal2
                {
                  OFFSET -2.0956 0.66 -0.3894
                  CHANNELS 6 Xposition Yposition Zposition Zrotation Xrotation Yrotation
                  JOINT rRing1
                  {
                    OFFSET -5.0395 -0.09 2.4971
                    CHANNELS 6 Xposition Yposition Zposition Zrotation Xrotation Yrotation
                    JOINT rRing2
                    {
                      OFFSET -3.7921 -1.552 1.4806
                      CHANNELS 6 Xposition Yposition Zposition Zrotation Xrotation Yrotation
                      JOINT rRing2_End
                      {
                        OFFSET -1.4655 -1.808 0.9609
                        CHANNELS 6 Xposition Yposition Zposition Zrotation Xrotation Yrotation
                        End Site
                        {
                          OFFSET -0.0147 -0.0181 0.0096
                        }
                      }
                    }
                  }
                  JOINT rPinky1
                  {
                    OFFSET -4.9141 -1.269 0.3592
                    CHANNELS 6 Xposition Yposition Zposition Zrotation Xrotation Yrotation
                    JOINT rPinky2
                    {
                      OFFSET -3.1477 -1.685 0.8462
                      CHANNELS 6 Xposition Yposition Zposition Zrotation Xrotation Yrotation
                      JOINT rPinky2_End
                      {
                        OFFSET -0.8055 -1.585 0.7955
                        CHANNELS 6 Xposition Yposition Zposition Zrotation Xrotation Yrotation
                        End Site
                        {
                          OFFSET -0.0081 -0.0158 0.008
                        }
                      }
                    }
                  }
                }
              }
            }
          }
        }
      }
    }
  }
  JOINT lThigh
  {
    OFFSET 8.367 -8.2066 0.5982
    CHANNELS 6 Xposition Yposition Zposition Zrotation Xrotation Yrotation
    JOINT lShin
    {
      OFFSET 2.1923 -43.463 -0.4932
      CHANNELS 6 Xposition Yposition Zposition Zrotation Xrotation Yrotation
      JOINT lFoot
      {
        OFFSET 0.7333 -45.8593 -2.6451
        CHANNELS 6 Xposition Yposition Zposition Zrotation Xrotation Yrotation
        End Site
        {
          OFFSET 2.6618 -4.2699 12.3931
        }
      }
    }
  }
  JOINT rThigh
  {
    OFFSET -8.367 -8.2066 0.5982
    CHANNELS 6 Xposition Yposition Zposition Zrotation Xrotation Yrotation
    JOINT rShin
    {
      OFFSET -2.1923 -43.463 -0.4931
      CHANNELS 6 Xposition Yposition Zposition Zrotation Xrotation Yrotation
      JOINT rFoot
      {
        OFFSET -0.7333 -45.8593 -2.6451
        CHANNELS 6 Xposition Yposition Zposition Zrotation Xrotation Yrotation
        End Site
        {
          OFFSET -2.6618 -4.2699 12.3931
        }
      }
    }
  }
}
MOTION
Frames:	4
Frame Time:	0.0333333
0 90.174 2.4664 0 0 -0 0 -1.186 -1.5018 0 0 -0 0 9.964 0.2134 0 0 -0 0 13.134 -3.2573 0 0 -0 0 20.686 -1.6905 0 0 -0 0 7.238 -0.1237 0 0 -0 1.7069 20.075 5.0056 0 0 -0 13.6458 -0.047 -4.849 1.66051 0.0835086 5.75766 28.3255 -0.9759 2.2888 -0.0175111 0.895433 15.7816 22.1583 -0.53 10.8316 7.95139e-016 -1.98785e-016 -0 0.786 0.112 2.5817 5.46658e-016 -3.97569e-016 -0 0.3601 -0.878 4.2331 5.96354e-016 0 -0 1.8127 -1.216 2.2227 3.97569e-016 1.98785e-016 9.54166e-015 0.9571 1.114 1.7695 1.49089e-016 -3.97569e-016 -0 4.1246 0.487 4.1451 6.4605e-016 0 3.18055e-015 3.4052 -1.454 2.7682 5.96354e-016 0 3.18055e-015 1.4531 -1.795 1.2713 8.94531e-016 -1.98785e-016 6.36111e-015 5.6954 0.21 2.1184 6.4605e-016 0 3.18055e-015 3.9766 -1.54 2.3863 5.96354e-016 0 3.18055e-015 1.4042 -1.926 1.125 8.94531e-016 -1.98785e-016 6.36111e-015 2.0956 0.66 -0.3894 1.49089e-016 -3.97569e-016 -0 5.0395 -0.09 2.4971 6.4605e-016 0 3.18055e-015 3.7921 -1.552 1.4806 5.96354e-016 0 3.18055e-015 1.4655 -1.808 0.9609 8.94531e-016 -1.98785e-016 6.36111e-015 4.9141 -1.269 0.3591 6.4605e-016 0 3.18055e-015 3.1477 -1.685 0.8462 5.96354e-016 0 3.18055e-015 0.8055 -1.585 0.7955 8.94531e-016 -1.98785e-016 6.36111e-015 -1.7069 20.075 5.0056 0 0 -0 -13.6458 -0.047 -4.849 -1.4496 0.0636048 -5.0245 -28.3255 -0.9759 2.2888 -1.74811 1.20616 -16.8394 -22.1583 -0.53 10.8316 -1.19271e-015 1.98785e-016 -3.18055e-015 -0.786 0.112 2.5817 -3.97569e-016 1.98785e-016 -3.18055e-015 -0.3601 -0.878 4.2331 -2.98177e-016 1.98785e-016 -3.18055e-015 -1.8127 -1.216 2.2227 -2.98177e-016 3.97569e-016 -0 -0.9571 1.114 1.7695 4.96962e-016 0 -6.36111e-015 -4.1246 0.487 4.1451 -9.93923e-017 3.97569e-016 -0 -3.4052 -1.454 2.7682 -8.94531e-016 5.96354e-016 -0 -1.4531 -1.795 1.2713 -3.97569e-016 3.97569e-016 -0 -5.6954 0.21 2.1184 -9.93923e-017 3.97569e-016 -0 -3.9766 -1.54 2.3863 -8.94531e-016 5.96354e-016 -0 -1.4042 -1.926 1.125 -3.97569e-016 3.97569e-016 -0 -2.0956 0.66 -0.3894 4.96962e-016 0 -6.36111e-015 -5.0395 -0.09 2.4971 -9.93923e-017 3.97569e-016 -0 -3.7921 -1.552 1.4806 -8.94531e-016 5.96354e-016 -0 -1.4655 -1.808 0.9609 -3.97569e-016 3.97569e-016 -0 -4.9141 -1.269 0.3592 -9.93923e-017 3.97569e-016 -0 -3.1477 -1.685 0.8462 -8.94531e-016 5.96354e-016 -0 -0.8055 -1.585 0.7955 -3.97569e-016 3.97569e-016 -0 8.367 -8.2066 0.5982 -4.66115 -1.03232 0.120763 2.1923 -43.463 -0.4932 0.00990601 1.55097 0.177175 0.7333 -45.8593 -2.6451 4.65196 -0.54114 -0.255042 -8.367 -8.2066 0.5982 4.66115 -1.03222 -0.120763 -2.1923 -43.463 -0.4931 -0.00990459 1.5509 -0.177176 -0.7333 -45.8593 -2.6451 -4.65196 -0.541171 0.255041 
-37.1906 55.4872 12.428 0.539873 0.509323 133.331 0 -1.186 -1.5018 -0.0240204 3.31735 -0.173818 3.55271e-015 9.964 0.2134 -0.038037 6.63476 -0.347107 0 13.134 -3.2573 -0.0380342 6.63475 -0.347115 3.55271e-015 20.686 -1.6905 1.55205e-005 -16.365 2.7907e-005 -3.55271e-015 7.238 -0.1237 -6.97467e-007 -10.4617 -2.11092e-006 1.7069 20.075 5.0056 15.8458 -19.3853 0.979209 13.6458 -0.047 -4.849 -44.5464 14.1186 -43.8168 28.3255 -0.9759 2.2888 -13.8456 5.98273 -44.3771 22.1583 -0.53 10.8316 -27.5592 10.6308 -6.73281 0.786 0.112 2.5817 2.85807e-007 -2.65445e-007 7.56284e-007 0.3601 -0.878 4.2331 2.85807e-007 -2.65445e-007 7.56284e-007 1.8127 -1.216 2.2227 2.85807e-007 -2.65445e-007 7.56284e-007 0.9571 1.114 1.7695 4.37326e-015 0 -8.34896e-015 4.1246 0.487 4.1451 2.85807e-007 -2.65445e-007 7.56284e-007 3.4052 -1.454 2.7682 2.85807e-007 -2.65445e-007 7.56284e-007 1.4531 -1.795 1.2713 2.85807e-007 -2.65445e-007 7.56284e-007 5.6954 0.21 2.1184 2.85807e-007 -2.65445e-007 7.56284e-007 3.9766 -1.54 2.3863 2.85807e-007 -2.65445e-007 7.56284e-007 1.4042 -1.926 1.125 2.85807e-007 -2.65445e-007 7.56284e-007 2.0956 0.66 -0.3894 4.37326e-015 0 -8.34896e-015 5.0395 -0.09 2.4971 2.85807e-007 -2.65445e-007 7.56284e-007 3.7921 -1.552 1.4806 2.85807e-007 -2.65445e-007 7.56284e-007 1.4655 -1.808 0.9609 2.85807e-007 -2.65445e-007 7.56284e-007 4.9141 -1.269 0.3591 2.85807e-007 -2.65445e-007 7.56284e-007 3.1477 -1.685 0.8462 2.85807e-007 -2.65445e-007 7.56284e-007 0.8055 -1.585 0.7955 2.85807e-007 -2.65445e-007 7.56284e-007 -1.7069 20.075 5.0056 -3.21843 -7.71737 3.72194 -13.6458 -0.047 -4.849 38.0746 3.42896 36.9879 -28.3255 -0.9759 2.2888 14.7039 -19.219 64.327 -22.1583 -0.53 10.8316 37.9208 -1.05686 8.82128 -0.786 0.112 2.5817 4.04191e-006 3.92587e-007 -2.60203e-006 -0.3601 -0.878 4.2331 4.04191e-006 3.92587e-007 -2.60203e-006 -1.8127 -1.216 2.2227 6.39086e-006 3.24769e-006 1.83247e-006 -0.9571 1.114 1.7695 4.84538e-016 -2.94663e-015 1.59028e-015 -4.1246 0.487 4.1451 4.04191e-006 3.92587e-007 -2.60203e-006 -3.4052 -1.454 2.7682 4.04191e-006 3.92587e-007 -2.60203e-006 -1.4531 -1.795 1.2713 6.39086e-006 3.24769e-006 1.83247e-006 -5.6954 0.21 2.1184 4.04191e-006 3.92587e-007 -2.60203e-006 -3.9766 -1.54 2.3863 4.04191e-006 3.92587e-007 -2.60203e-006 -1.4042 -1.926 1.125 6.39086e-006 3.24769e-006 1.83247e-006 -2.0956 0.66 -0.3894 4.84538e-016 -2.94663e-015 1.59028e-015 -5.0395 -0.09 2.4971 4.04191e-006 3.92587e-007 -2.60203e-006 -3.7921 -1.552 1.4806 4.04191e-006 3.92587e-007 -2.60203e-006 -1.4655 -1.808 0.9609 6.39086e-006 3.24769e-006 1.83247e-006 -4.9141 -1.269 0.3592 4.04191e-006 3.92587e-007 -2.60203e-006 -3.1477 -1.685 0.8462 4.04191e-006 3.92587e-007 -2.60203e-006 -0.8055 -1.585 0.7955 6.39086e-006 3.24769e-006 1.83247e-006 8.367 -8.2066 0.5982 7.77164 -12.761 11.1297 2.1923 -43.463 -0.4932 15.1063 80.6777 -14.6334 0.7333 -45.8593 -2.6451 4.86077 31.9133 1.545 -8.367 -8.2066 0.5982 -6.66626 -12.6783 -12.0408 -2.1923 -43.463 -0.4931 -15.3672 80.7964 14.8822 -0.7333 -45.8593 -2.6451 -4.84534 31.5589 -3.12031 
-60.232 39.4038 17.4664 -0.24821 1.04716 -166.664 7.10543e-015 -1.186 -1.5018 -0.0243615 4.8099 -0.256402 -7.10543e-015 9.964 0.2134 -0.0271804 9.61987 -0.513419 0 13.134 -3.2573 -0.0271811 9.61988 -0.513417 -7.10543e-015 20.686 -1.6905 -7.52335e-006 -23.3914 2.30666e-006 0 7.238 -0.1237 3.59419e-007 -14.7194 3.3181e-006 1.7069 20.075 5.0056 23.2205 -28.1041 1.51842 13.6458 -0.047 -4.849 -59.3282 10.188 -65.7307 28.3255 -0.9759 2.2888 -19.2323 1.27068 -70.6065 22.1583 -0.53 10.8316 -40.3962 14.8149 -8.11609 0.786 0.112 2.5817 1.06774e-006 3.20701e-006 -1.12211e-007 0.3601 -0.878 4.2331 1.59028e-015 6.36111e-015 -7.95139e-016 1.8127 -1.216 2.2227 6.59038e-007 3.2383e-006 6.01362e-009 0.9571 1.114 1.7695 -0 -3.18055e-015 -0 4.1246 0.487 4.1451 1.06774e-006 3.20701e-006 -1.12211e-007 3.4052 -1.454 2.7682 7.95139e-016 3.18055e-015 7.95139e-016 1.4531 -1.795 1.2713 6.59038e-007 3.2383e-006 6.01362e-009 5.6954 0.21 2.1184 1.06774e-006 3.20701e-006 -1.12211e-007 3.9766 -1.54 2.3863 7.95139e-016 3.18055e-015 7.95139e-016 1.4042 -1.926 1.125 6.59038e-007 3.2383e-006 6.01362e-009 2.0956 0.66 -0.3894 -0 -3.18055e-015 -0 5.0395 -0.09 2.4971 1.06774e-006 3.20701e-006 -1.12211e-007 3.7921 -1.552 1.4806 7.95139e-016 3.18055e-015 7.95139e-016 1.4655 -1.808 0.9609 6.59038e-007 3.2383e-006 6.01362e-009 4.9141 -1.269 0.3591 1.06774e-006 3.20701e-006 -1.12211e-007 3.1477 -1.685 0.8462 7.95139e-016 3.18055e-015 7.95139e-016 0.8055 -1.585 0.7955 6.59038e-007 3.2383e-006 6.01362e-009 -1.7069 20.075 5.0056 -4.33389 -11.1641 5.45132 -13.6458 -0.047 -4.849 54.3377 2.91096 55.8834 -28.3255 -0.9759 2.2888 20.6092 11.0866 72.1254 -22.1583 -0.53 10.8316 56.214 -1.93852 10.3395 -0.786 0.112 2.5817 -5.3006e-006 8.38304e-006 -6.65355e-006 -0.3601 -0.878 4.2331 0 0 -0 -1.8127 -1.216 2.2227 -1.8844e-006 -5.63516e-007 -2.74939e-006 -0.9571 1.114 1.7695 -3.18055e-015 6.36111e-015 -0 -4.1246 0.487 4.1451 -5.3006e-006 8.38304e-006 -6.65355e-006 -3.4052 -1.454 2.7682 -0 -3.18055e-015 -0 -1.4531 -1.795 1.2713 -1.8844e-006 -5.63516e-007 -2.74939e-006 -5.6954 0.21 2.1184 -5.3006e-006 8.38304e-006 -6.65355e-006 -3.9766 -1.54 2.3863 -0 -3.18055e-015 -0 -1.4042 -1.926 1.125 -1.8844e-006 -5.63516e-007 -2.74939e-006 -2.0956 0.66 -0.3894 -3.18055e-015 6.36111e-015 -0 -5.0395 -0.09 2.4971 -5.3006e-006 8.38304e-006 -6.65355e-006 -3.7921 -1.552 1.4806 -0 -3.18055e-015 -0 -1.4655 -1.808 0.9609 -1.8844e-006 -5.63516e-007 -2.74939e-006 -4.9141 -1.269 0.3592 -5.3006e-006 8.38304e-006 -6.65355e-006 -3.1477 -1.685 0.8462 -0 -3.18055e-015 -0 -0.8055 -1.585 0.7955 -1.8844e-006 -5.63516e-007 -2.74939e-006 8.367 -8.2066 0.5982 14.7459 -19.3374 18.4792 2.1923 -43.463 -0.4932 167.814 62.2794 -164.745 0.7333 -45.8593 -2.6451 3.1829 47.5671 3.98279 -8.367 -8.2066 0.5982 -13.2648 -19.0961 -19.8381 -2.1923 -43.463 -0.4931 -167.857 62.1553 164.743 -0.7333 -45.8593 -2.6451 -2.47122 46.9681 -6.70437 
-54.9337 43.2967 15.6087 -6.894e-015 1.00189 180 0 -1.186 -1.5018 -0.0248746 4.47825 -0.237778 7.10543e-015 9.964 0.2134 -0.0311841 8.95655 -0.475791 7.10543e-015 13.134 -3.2573 -0.0311841 8.95656 -0.475791 7.10543e-015 20.686 -1.6905 3.12246e-006 -21.0791 6.35563e-007 7.10543e-015 7.238 -0.1237 -2.1922e-008 -12.7729 -1.86547e-007 1.7069 20.075 5.0056 21.5658 -26.167 1.38941 13.6458 -0.047 -4.849 -56.0057 11.7454 -61.1189 28.3255 -0.9759 2.2888 -17.8202 2.71341 -64.8898 22.1583 -0.53 10.8316 -37.5087 13.9369 -7.8938 0.786 0.112 2.5817 -3.97569e-016 0 1.98785e-015 0.3601 -0.878 4.2331 -1.07809e-006 1.30361e-007 -5.27e-007 1.8127 -1.216 2.2227 -7.95139e-016 -9.54166e-015 1.19271e-015 0.9571 1.114 1.7695 2.38542e-015 0 -0 4.1246 0.487 4.1451 2.38542e-015 0 3.97569e-015 3.4052 -1.454 2.7682 -1.07809e-006 1.30361e-007 -5.27e-007 1.4531 -1.795 1.2713 -1.59028e-015 -1.59028e-014 3.97569e-016 5.6954 0.21 2.1184 2.38542e-015 0 3.97569e-015 3.9766 -1.54 2.3863 -1.07809e-006 1.30361e-007 -5.27e-007 1.4042 -1.926 1.125 -1.59028e-015 -1.59028e-014 3.97569e-016 2.0956 0.66 -0.3894 2.38542e-015 0 -0 5.0395 -0.09 2.4971 2.38542e-015 0 3.97569e-015 3.7921 -1.552 1.4806 -1.07809e-006 1.30361e-007 -5.27e-007 1.4655 -1.808 0.9609 -1.59028e-015 -1.59028e-014 3.97569e-016 4.9141 -1.269 0.3591 2.38542e-015 0 3.97569e-015 3.1477 -1.685 0.8462 -1.07809e-006 1.30361e-007 -5.27e-007 0.8055 -1.585 0.7955 -1.59028e-015 -1.59028e-014 3.97569e-016 -1.7069 20.075 5.0056 -4.10436 -10.4004 5.06243 -13.6458 -0.047 -4.849 50.7488 3.17528 51.6959 -28.3255 -0.9759 2.2888 19.6879 3.9333 73.1191 -22.1583 -0.53 10.8316 52.1028 -1.6746 10.1161 -0.786 0.112 2.5817 -5.8093e-007 3.88046e-006 4.43881e-007 -0.3601 -0.878 4.2331 3.50238e-007 1.25356e-008 -2.43312e-007 -1.8127 -1.216 2.2227 -1.6436e-006 1.62807e-006 -1.34559e-006 -0.9571 1.114 1.7695 2.34489e-032 3.18055e-015 -4.22417e-016 -4.1246 0.487 4.1451 -5.8093e-007 3.88046e-006 4.43881e-007 -3.4052 -1.454 2.7682 3.50238e-007 1.25356e-008 -2.43312e-007 -1.4531 -1.795 1.2713 -1.6436e-006 1.62807e-006 -1.34559e-006 -5.6954 0.21 2.1184 -5.8093e-007 3.88046e-006 4.43881e-007 -3.9766 -1.54 2.3863 3.50238e-007 1.25356e-008 -2.43312e-007 -1.4042 -1.926 1.125 -1.6436e-006 1.62807e-006 -1.34559e-006 -2.0956 0.66 -0.3894 2.34489e-032 3.18055e-015 -4.22417e-016 -5.0395 -0.09 2.4971 -5.8093e-007 3.88046e-006 4.43881e-007 -3.7921 -1.552 1.4806 3.50238e-007 1.25356e-008 -2.43312e-007 -1.4655 -1.808 0.9609 -1.6436e-006 1.62807e-006 -1.34559e-006 -4.9141 -1.269 0.3592 -5.8093e-007 3.88046e-006 4.43881e-007 -3.1477 -1.685 0.8462 3.50238e-007 1.25356e-008 -2.43312e-007 -0.8055 -1.585 0.7955 -1.6436e-006 1.62807e-006 -1.34559e-006 8.367 -8.2066 0.5982 13.0256 -17.2248 16.3954 2.1923 -43.463 -0.4932 164.898 70.9072 -162.712 0.7333 -45.8593 -2.6451 3.84427 43.8313 3.1206 -8.367 -8.2066 0.5982 -11.5841 -17.0321 -17.6067 -2.1923 -43.463 -0.4931 -164.977 70.7859 162.759 -0.7333 -45.8593 -2.6451 -3.34659 43.298 -5.53525 
